<svg width="435" height="253" viewBox="0 0 435 253" fill="none" xmlns="http://www.w3.org/2000/svg">
<path d="M198 211.851H237V242.851H198V211.851Z" fill="black"/>
<path d="M0 9.85138H107V39.8514H48L52.5 47.3514L60.5 53.3514L69 58.3514L76 60.3514H107L115 89.8514H76L60.5 85.8514L43.5 78.3514L32 67.8514L23 58.3514L17.5 48.3514L14.0505 39.8514L0 9.85138Z" fill="black"/>
<path d="M106.5 39.8514L106.5 9.85138L120.5 11.8514L131 17.3514L140.5 25.3514L145.5 31.3514L148 39.8514L152.5 54.8514L158.762 82.8514L185.5 197.351L191 207.351L198 211.851L198 242.351L189 240.351L182 237.851L173 231.351L163.5 221.851L158.762 210.409L120.5 49.8514L115.5 42.3514L106.5 39.8514Z" fill="black"/>
<path d="M434.599 9.85138H327.599V39.8514H386.599L382.099 47.3514L374.099 53.3514L365.599 58.3514L358.599 60.3514H327.599L319.599 89.8514H358.599L374.099 85.8514L391.099 78.3514L402.599 67.8514L411.599 58.3514L417.099 48.3514L420.548 39.8514L434.599 9.85138Z" fill="black"/>
<path d="M328.099 39.8514L328.099 9.85138L314.099 11.8514L303.599 17.3514L294.099 25.3514L289.099 31.3514L286.599 39.8514L282.099 54.8514L275.837 82.8514L249.099 197.351L243.599 207.351L236.599 211.851L236.599 242.351L245.599 240.351L252.599 237.851L261.599 231.351L271.099 221.851L275.837 210.409L314.099 49.8514L319.099 42.3514L328.099 39.8514Z" fill="black"/>
<path d="M212.609 37.6795C212.609 36.9608 212.766 36.2108 213.078 35.4295C213.391 34.617 213.672 33.9295 213.922 33.367C214.141 32.9295 214.484 32.2576 214.953 31.3514C215.422 30.4139 215.953 29.367 216.547 28.2108C217.141 27.0545 217.766 25.8358 218.422 24.5545C219.109 23.2733 219.75 22.0545 220.344 20.8983C220.938 19.742 221.469 18.7108 221.938 17.8045C222.438 16.867 222.797 16.1795 223.016 15.742C223.047 15.7108 223.109 15.6014 223.203 15.4139C223.328 15.2264 223.453 15.0389 223.578 14.8514C223.734 14.6639 223.875 14.492 224 14.3358C224.125 14.1483 224.203 14.0233 224.234 13.9608C224.266 13.8983 224.25 13.8358 224.188 13.7733C224.125 13.7108 224.094 13.6483 224.094 13.5858C222.75 13.742 221.344 13.9451 219.875 14.1951C218.438 14.4451 217 14.742 215.562 15.0858C214.156 15.3983 212.797 15.7733 211.484 16.2108C210.172 16.617 208.984 17.0858 207.922 17.617C207.578 17.617 207.266 17.5545 206.984 17.4295C206.703 17.3045 206.562 17.0545 206.562 16.6795V16.5389C206.562 16.5076 206.578 16.4608 206.609 16.3983C206.672 16.242 206.766 16.0076 206.891 15.6951C207.047 15.3514 207.156 15.1639 207.219 15.1326L211.484 13.3045L240.031 6.03888C240.375 6.91388 240.344 7.617 239.938 8.14825C239.562 8.64825 238.953 9.07013 238.109 9.41388C237.266 9.72638 236.281 10.0076 235.156 10.2576C234.062 10.4764 232.953 10.7576 231.828 11.1014C230.734 11.4139 229.719 11.8514 228.781 12.4139C227.844 12.9451 227.141 13.6639 226.672 14.5701C224.641 18.6014 222.547 22.617 220.391 26.617C218.266 30.617 216.312 34.6951 214.531 38.8514C214.5 38.8514 214.438 38.8514 214.344 38.8514C214.281 38.8826 214.234 38.8983 214.203 38.8983C213.797 38.8983 213.422 38.8045 213.078 38.617C212.766 38.4295 212.609 38.117 212.609 37.6795ZM212.328 97.9139C212.328 97.8514 212.344 97.8045 212.375 97.7733C212.375 97.7108 212.391 97.6639 212.422 97.6326C214.297 93.5076 216.219 89.4295 218.188 85.3983C220.156 81.3358 222.281 77.3045 224.562 73.3045C224.625 73.1795 224.719 72.9608 224.844 72.6483C224.969 72.3045 225.094 71.9451 225.219 71.5701C225.344 71.1639 225.453 70.7889 225.547 70.4451C225.641 70.0701 225.703 69.8045 225.734 69.6483C225.609 69.6483 225.391 69.6483 225.078 69.6483C224.766 69.6483 224.422 69.6483 224.047 69.6483C223.703 69.617 223.359 69.6014 223.016 69.6014C222.703 69.6014 222.484 69.6014 222.359 69.6014C221.641 69.6014 220.844 69.6483 219.969 69.742C219.094 69.8045 218.203 69.9139 217.297 70.0701C216.422 70.2264 215.547 70.4295 214.672 70.6795C213.828 70.8983 213.078 71.1639 212.422 71.4764C211.891 71.7264 211.469 72.0233 211.156 72.367C210.875 72.6795 210.641 72.992 210.453 73.3045C210.266 73.617 210.094 73.9295 209.938 74.242C209.781 74.5233 209.578 74.7733 209.328 74.992C209.078 75.2108 208.734 75.3983 208.297 75.5545C207.891 75.6795 207.328 75.742 206.609 75.742H206.281C206.75 75.2733 207.188 74.7108 207.594 74.0545C208.031 73.367 208.469 72.6795 208.906 71.992C209.344 71.2733 209.781 70.6014 210.219 69.9764C210.688 69.3514 211.203 68.8514 211.766 68.4764C214.078 67.4139 216.562 66.7264 219.219 66.4139C221.875 66.1014 224.453 65.9764 226.953 66.0389C227.547 66.1326 228.016 66.2576 228.359 66.4139C228.703 66.5389 228.953 66.7264 229.109 66.9764C229.266 67.2264 229.359 67.5389 229.391 67.9139C229.453 68.2889 229.484 68.7576 229.484 69.3201C227.172 74.2889 225.062 78.6639 223.156 82.4451C221.25 86.2264 219.594 89.3826 218.188 91.9139C216.812 94.4139 215.719 96.2576 214.906 97.4451C214.125 98.6326 213.688 99.117 213.594 98.8983C213.281 98.8983 212.984 98.8358 212.703 98.7108C212.453 98.5545 212.328 98.3045 212.328 97.9608V97.9139ZM201.617 173.945C201.398 173.883 201.195 173.773 201.008 173.617C200.82 173.492 200.695 173.336 200.633 173.148C200.539 172.961 200.523 172.773 200.586 172.586C200.617 172.398 200.773 172.242 201.055 172.117C202.43 171.648 203.742 171.148 204.992 170.617C206.242 170.086 207.398 169.445 208.461 168.695C209.555 167.976 210.539 167.101 211.414 166.07C212.32 165.039 213.102 163.805 213.758 162.367L230.82 125.945H230.211C230.148 125.945 229.805 126.086 229.18 126.367C228.555 126.648 227.82 126.976 226.977 127.351C226.164 127.726 225.32 128.117 224.445 128.523C223.57 128.93 222.867 129.273 222.336 129.555C221.586 129.93 220.711 130.461 219.711 131.148C218.742 131.805 217.727 132.57 216.664 133.445C215.633 134.32 214.617 135.273 213.617 136.305C212.617 137.305 211.711 138.336 210.898 139.398C210.117 140.43 209.477 141.461 208.977 142.492C208.508 143.523 208.273 144.476 208.273 145.351C208.273 145.695 208.336 145.992 208.461 146.242C208.617 146.492 208.789 146.742 208.977 146.992C209.164 147.211 209.32 147.461 209.445 147.742C209.602 147.992 209.68 148.273 209.68 148.586C209.023 148.586 208.461 148.476 207.992 148.258C207.523 148.008 207.133 147.695 206.82 147.32C206.539 146.914 206.32 146.461 206.164 145.961C206.039 145.461 205.977 144.945 205.977 144.414C205.977 143.601 206.117 142.836 206.398 142.117C206.68 141.367 207.039 140.664 207.477 140.008C207.945 139.32 208.461 138.68 209.023 138.086C209.586 137.461 210.164 136.851 210.758 136.258C211.258 135.758 211.93 135.117 212.773 134.336C213.617 133.523 214.461 132.726 215.305 131.945C216.148 131.164 216.898 130.492 217.555 129.93C218.211 129.336 218.586 129.008 218.68 128.945L233.258 121.07C233.945 120.664 234.539 120.086 235.039 119.336C235.57 118.586 236.086 117.851 236.586 117.133C237.117 116.383 237.711 115.742 238.367 115.211C239.023 114.648 239.852 114.367 240.852 114.367C241.133 114.367 241.383 114.43 241.602 114.555C241.82 114.648 242.07 114.789 242.352 114.976C242.383 115.101 242.398 115.367 242.398 115.773C242.43 116.148 242.445 116.398 242.445 116.523C242.445 116.93 242.445 117.258 242.445 117.508C242.445 117.726 242.398 117.93 242.305 118.117C242.242 118.273 242.117 118.43 241.93 118.586C241.773 118.742 241.508 118.961 241.133 119.242C240.852 119.461 240.352 119.836 239.633 120.367C238.945 120.898 238.195 121.523 237.383 122.242C236.57 122.93 235.789 123.664 235.039 124.445C234.32 125.195 233.82 125.898 233.539 126.555L222.898 147.789C222.867 147.945 222.773 148.258 222.617 148.726C222.492 149.164 222.398 149.461 222.336 149.617C222.086 150.117 221.758 150.789 221.352 151.633C220.977 152.445 220.555 153.336 220.086 154.305C219.648 155.242 219.18 156.226 218.68 157.258C218.211 158.258 217.758 159.195 217.32 160.07C216.914 160.945 216.555 161.695 216.242 162.32C215.93 162.976 215.711 163.398 215.586 163.586C215.055 164.617 214.289 165.773 213.289 167.055C212.32 168.336 211.211 169.523 209.961 170.617C208.711 171.711 207.367 172.586 205.93 173.242C204.492 173.898 203.055 174.133 201.617 173.945Z" fill="black"/>
</svg>
