<svg width="435" height="253" viewBox="0 0 435 253" fill="none" xmlns="http://www.w3.org/2000/svg">
<path d="M198 211.851H237V242.851H198V211.851Z" fill="black"/>
<path d="M0 9.85138H107V39.8514H48L52.5 47.3514L60.5 53.3514L69 58.3514L76 60.3514H107L115 89.8514H76L60.5 85.8514L43.5 78.3514L32 67.8514L23 58.3514L17.5 48.3514L14.0505 39.8514L0 9.85138Z" fill="black"/>
<path d="M106.5 39.8514L106.5 9.85139L120.5 11.8514L131 17.3514L140.5 25.3514L145.5 31.3514L148 39.8514L152.5 54.8514L158.762 82.8514L185.5 197.351L191 207.351L198 211.851L198 242.351L189 240.351L182 237.851L173 231.351L163.5 221.851L158.762 210.409L120.5 49.8514L115.5 42.3514L106.5 39.8514Z" fill="black"/>
<path d="M434.599 9.85138H327.599V39.8514H386.599L382.099 47.3514L374.099 53.3514L365.599 58.3514L358.599 60.3514H327.599L319.599 89.8514H358.599L374.099 85.8514L391.099 78.3514L402.599 67.8514L411.599 58.3514L417.099 48.3514L420.548 39.8514L434.599 9.85138Z" fill="black"/>
<path d="M328.099 39.8514L328.099 9.85139L314.099 11.8514L303.599 17.3514L294.099 25.3514L289.099 31.3514L286.599 39.8514L282.099 54.8514L275.837 82.8514L249.099 197.351L243.599 207.351L236.599 211.851L236.599 242.351L245.599 240.351L252.599 237.851L261.599 231.351L271.099 221.851L275.837 210.409L314.099 49.8514L319.099 42.3514L328.099 39.8514Z" fill="black"/>
<path d="M207.883 47.0594H214.411V20.9954H209.179C208.667 20.9954 208.139 21.2194 207.595 21.6674C207.051 22.1154 206.571 22.6434 206.155 23.2514C205.771 23.8594 205.579 24.4194 205.579 24.9314V29.8754H201.835V14.3714H205.627V17.2514H230.347V14.3714H234.187V29.8754H230.443V24.9314C230.443 24.4194 230.235 23.8594 229.819 23.2514C229.435 22.6434 228.971 22.1154 228.427 21.6674C227.883 21.2194 227.371 20.9954 226.891 20.9954H221.563V47.0594H228.091V50.8514H207.883V47.0594ZM208.514 107.395H213.362C213.394 107.171 213.426 107.027 213.458 106.963C213.458 106.899 213.458 106.835 213.458 106.771C213.49 106.707 213.506 106.643 213.506 106.579C214.146 103.763 215.058 100.947 216.242 98.1314C217.426 95.3154 218.834 92.6434 220.466 90.1154C222.13 87.5554 223.922 85.2354 225.842 83.1554H211.73C211.122 83.1554 210.658 83.2034 210.338 83.2994C210.05 83.3634 209.826 83.4914 209.666 83.6834C209.538 83.8434 209.474 84.1314 209.474 84.5474V89.2034H205.826V74.3714H209.474V77.2514H231.65V80.7554C228.738 84.1154 226.306 87.9874 224.354 92.3714C222.402 96.7554 221.09 101.475 220.418 106.531L220.37 106.915L220.322 107.395H227.33V110.851H208.514V107.395ZM204.802 156.307H208.546V158.467C208.546 159.811 208.898 161.187 209.602 162.595C210.306 164.003 211.218 165.171 212.338 166.099C213.49 167.027 214.658 167.491 215.842 167.491C216.834 167.491 217.65 167.203 218.29 166.627C218.962 166.051 219.458 165.219 219.778 164.131C220.098 163.011 220.258 161.571 220.258 159.811V141.043H212.722V137.251H231.97V141.043H227.458V159.091C227.458 161.715 226.978 163.971 226.018 165.859C225.058 167.715 223.762 169.139 222.13 170.131C220.498 171.091 218.69 171.571 216.706 171.571C215.714 171.571 214.802 171.459 213.97 171.235C213.17 171.011 212.322 170.675 211.426 170.227C210.978 170.067 210.514 169.875 210.034 169.651C209.554 169.427 209.074 169.219 208.594 169.027V172.867H204.802V156.307Z" fill="black"/>
</svg>
