<svg width="812" height="250" viewBox="0 0 812 250" fill="none" xmlns="http://www.w3.org/2000/svg">
<path d="M370.374 232.206H386.796V245.259H370.374V232.206Z" fill="black"/>
<path d="M287 147.148H332.055V159.781H307.212L309.107 162.939L312.475 165.465L316.054 167.57L319.002 168.413H332.055L335.424 180.834H319.002L312.475 179.15L305.317 175.992L300.475 171.571L296.685 167.57L294.369 163.36L292.916 159.781L287 147.148Z" fill="black"/>
<path d="M331.845 159.781L331.845 147.148L337.74 147.99L342.161 150.306L346.161 153.675L348.267 156.201L349.32 159.781L351.214 166.097L353.851 177.887L365.11 226.1L367.426 230.311L370.373 232.206L370.373 245.049L366.584 244.207L363.636 243.154L359.847 240.417L355.846 236.417L353.851 231.598L337.74 163.991L335.634 160.833L331.845 159.781Z" fill="black"/>
<path d="M470 147.148H424.945V159.781H449.788L447.893 162.939L444.525 165.465L440.946 167.57L437.998 168.413H424.945L421.576 180.834H437.998L444.525 179.15L451.683 175.992L456.525 171.571L460.315 167.57L462.631 163.36L464.084 159.781L470 147.148Z" fill="black"/>
<path d="M425.155 159.781L425.155 147.148L419.26 147.99L414.839 150.306L410.839 153.675L408.733 156.201L407.68 159.781L405.786 166.097L403.149 177.887L391.89 226.1L389.574 230.311L386.627 232.206L386.627 245.049L390.416 244.207L393.364 243.154L397.153 240.417L401.154 236.417L403.149 231.598L419.26 163.991L421.366 160.833L425.155 159.781Z" fill="black"/>
<path d="M16.75 115.875C16.75 113.958 17.1667 111.958 18 109.875C18.8333 107.708 19.5833 105.875 20.25 104.375C20.8333 103.208 21.75 101.417 23 99C24.25 96.5 25.6667 93.7083 27.25 90.625C28.8333 87.5417 30.5 84.2917 32.25 80.875C34.0833 77.4583 35.7917 74.2083 37.375 71.125C38.9583 68.0417 40.375 65.2917 41.625 62.875C42.9583 60.375 43.9167 58.5417 44.5 57.375C44.5833 57.2917 44.75 57 45 56.5C45.3333 56 45.6667 55.5 46 55C46.4167 54.5 46.7917 54.0417 47.125 53.625C47.4583 53.125 47.6667 52.7917 47.75 52.625C47.8333 52.4583 47.7917 52.2917 47.625 52.125C47.4583 51.9583 47.375 51.7917 47.375 51.625C43.7917 52.0417 40.0417 52.5833 36.125 53.25C32.2917 53.9167 28.4583 54.7083 24.625 55.625C20.875 56.4583 17.25 57.4583 13.75 58.625C10.25 59.7083 7.08333 60.9583 4.25 62.375C3.33333 62.375 2.5 62.2083 1.75 61.875C1 61.5417 0.625 60.875 0.625 59.875V59.5C0.625 59.4167 0.666667 59.2917 0.75 59.125C0.916667 58.7083 1.16667 58.0833 1.5 57.25C1.91667 56.3333 2.20833 55.8333 2.375 55.75L13.75 50.875L89.875 31.5C90.7917 33.8333 90.7083 35.7083 89.625 37.125C88.625 38.4583 87 39.5833 84.75 40.5C82.5 41.3333 79.875 42.0833 76.875 42.75C73.9583 43.3333 71 44.0833 68 45C65.0833 45.8333 62.375 47 59.875 48.5C57.375 49.9167 55.5 51.8333 54.25 54.25C48.8333 65 43.25 75.7083 37.5 86.375C31.8333 97.0417 26.625 107.917 21.875 119C21.7917 119 21.625 119 21.375 119C21.2083 119.083 21.0833 119.125 21 119.125C19.9167 119.125 18.9167 118.875 18 118.375C17.1667 117.875 16.75 117.042 16.75 115.875ZM64.25 112.5C62.8333 109.333 62.2083 106.25 62.375 103.25C62.5417 100.167 63.2083 97.2917 64.375 94.625C65.625 91.875 67.2083 89.4167 69.125 87.25C71.125 85 73.25 83.0833 75.5 81.5C77.75 79.8333 80 78.5833 82.25 77.75C84.5833 76.9167 86.625 76.5833 88.375 76.75C90.125 76.8333 91.5 77.4583 92.5 78.625C93.5 79.7917 93.8333 81.5833 93.5 84C93.5 87.25 92.4583 90.0833 90.375 92.5C88.375 94.9167 86.125 97.0833 83.625 99C81.2083 100.917 78.9583 102.667 76.875 104.25C74.875 105.75 73.875 107.167 73.875 108.5C73.875 109.25 74.2917 109.833 75.125 110.25C76.0417 110.667 77.0833 111 78.25 111.25C79.4167 111.417 80.5833 111.542 81.75 111.625C82.9167 111.708 83.75 111.792 84.25 111.875C92.0833 110.208 97.9583 109.208 101.875 108.875C105.792 108.458 108.25 108.5 109.25 109C110.25 109.417 110.042 110.125 108.625 111.125C107.292 112.042 105.208 113.042 102.375 114.125C99.5417 115.125 96.25 116.042 92.5 116.875C88.75 117.708 85.0417 118.208 81.375 118.375C77.7083 118.458 74.2917 118.083 71.125 117.25C68.0417 116.417 65.75 114.833 64.25 112.5ZM86.125 84C84.4583 84 82.875 84.4583 81.375 85.375C79.875 86.2917 78.5 87.4583 77.25 88.875C76.0833 90.2083 75.0833 91.7083 74.25 93.375C73.4167 94.9583 72.7917 96.4583 72.375 97.875C72.5417 97.9583 72.6667 98 72.75 98H73.125C74.2917 98 75.625 97.5 77.125 96.5C78.625 95.5 80.0417 94.2917 81.375 92.875C82.7083 91.375 83.8333 89.8333 84.75 88.25C85.6667 86.6667 86.125 85.25 86.125 84ZM107.375 110.875C108.125 106.125 109.542 101.75 111.625 97.75C113.708 93.75 116.083 90.2917 118.75 87.375C121.5 84.375 124.458 81.9167 127.625 80C130.792 78.0833 133.875 76.875 136.875 76.375C139.875 75.7917 142.625 75.9167 145.125 76.75C147.708 77.5833 149.792 79.25 151.375 81.75C151.375 83.6667 150.917 85.5 150 87.25C149.167 89 148.208 90.75 147.125 92.5C146.125 94.25 145.167 96.0417 144.25 97.875C143.417 99.7083 143 101.667 143 103.75C143 105.917 143.458 107.667 144.375 109C145.375 110.25 147.083 110.875 149.5 110.875C151.5 110.875 153.417 110.583 155.25 110C157.167 109.417 159.083 109.125 161 109.125C161.333 109.125 161.875 109.167 162.625 109.25C163.458 109.25 164 109.25 164.25 109.25C163.25 110.667 161.958 111.875 160.375 112.875C158.792 113.875 157.125 114.75 155.375 115.5C153.625 116.167 151.792 116.667 149.875 117C148.042 117.333 146.333 117.5 144.75 117.5C143.25 117.5 141.917 117.167 140.75 116.5C139.583 115.833 138.583 114.958 137.75 113.875C136.917 112.792 136.25 111.583 135.75 110.25C135.333 108.833 135.125 107.458 135.125 106.125C133.875 107.542 132.5 109.042 131 110.625C129.583 112.125 128.042 113.5 126.375 114.75C124.792 116 123.042 117.042 121.125 117.875C119.292 118.708 117.375 119.125 115.375 119.125C113.208 119.125 111.333 118.333 109.75 116.75C108.167 115.083 107.375 113.125 107.375 110.875ZM115.625 107C115.625 107.667 115.625 108.417 115.625 109.25C115.708 110.083 116.25 110.625 117.25 110.875C119.333 110.375 121.708 109.292 124.375 107.625C127.042 105.875 129.542 103.875 131.875 101.625C134.208 99.2917 136.167 96.8333 137.75 94.25C139.333 91.5833 140.125 89.0417 140.125 86.625C140.125 86.4583 140.083 86.2083 140 85.875C140 85.4583 140 85.1667 140 85C137.167 85 134.292 85.5833 131.375 86.75C128.458 87.9167 125.833 89.5417 123.5 91.625C121.167 93.625 119.25 95.9583 117.75 98.625C116.333 101.292 115.625 104.083 115.625 107ZM220.75 119.125C219.167 119.125 217.708 118.833 216.375 118.25C215.125 117.667 214.083 116.833 213.25 115.75C212.417 114.667 211.833 113.458 211.5 112.125C211.167 110.708 211.208 109.208 211.625 107.625C211.625 104.958 212.083 102.5 213 100.25C214 97.9167 215.083 95.7083 216.25 93.625C217.5 91.4583 218.583 89.3333 219.5 87.25C220.5 85.0833 221 82.7917 221 80.375C219.167 80.375 217.208 80.9583 215.125 82.125C213.042 83.2917 210.917 84.8333 208.75 86.75C206.667 88.6667 204.583 90.8333 202.5 93.25C200.5 95.5833 198.583 97.9583 196.75 100.375C195 102.708 193.458 104.958 192.125 107.125C190.875 109.292 189.917 111.083 189.25 112.5C189.083 112.583 188.667 112.667 188 112.75C187.333 112.75 186.917 112.75 186.75 112.75C185.417 113.417 184.583 113.417 184.25 112.75C184 112 184 110.875 184.25 109.375C184.583 107.875 185.083 106.208 185.75 104.375C186.417 102.458 187.042 100.667 187.625 99C188.292 97.25 188.792 95.8333 189.125 94.75C189.458 93.5833 189.5 93 189.25 93C189.5 92.6667 189.792 92.125 190.125 91.375C190.458 90.625 190.792 89.8333 191.125 89C191.458 88.1667 191.75 87.4167 192 86.75C192.25 86 192.375 85.4167 192.375 85C192.375 84.25 192.083 83.7917 191.5 83.625C191 83.375 190.5 83.25 190 83.25C188.5 82.4167 186.875 82.9167 185.125 84.75C183.458 86.5 181.625 89.0417 179.625 92.375C177.708 95.625 175.583 99.375 173.25 103.625C171 107.792 168.5 111.833 165.75 115.75C163.833 115.75 162.375 115.5 161.375 115C160.375 114.5 159.875 113.25 159.875 111.25C160.542 110.333 161.542 108.625 162.875 106.125C164.208 103.542 165.708 100.708 167.375 97.625C169.042 94.5417 170.792 91.4167 172.625 88.25C174.542 85.0833 176.333 82.4167 178 80.25C179.75 78 181.292 76.5 182.625 75.75C184.042 74.9167 185.167 75.2917 186 76.875C187.417 75.9583 188.958 75.1667 190.625 74.5C192.375 73.8333 194.125 73.5 195.875 73.5C197.042 73.5 198 73.875 198.75 74.625C199.583 75.2917 200.208 76.1667 200.625 77.25C201.125 78.25 201.5 79.3333 201.75 80.5C202 81.5833 202.125 82.5417 202.125 83.375C203.042 82.7917 204.542 81.7917 206.625 80.375C208.792 78.875 211.083 77.375 213.5 75.875C216 74.375 218.417 73.0833 220.75 72C223.167 70.8333 225.125 70.25 226.625 70.25C227.958 70.25 229.083 70.75 230 71.75C231 72.6667 231.5 73.8333 231.5 75.25C228.5 82.5833 226.125 88.4583 224.375 92.875C222.708 97.2917 221.583 100.75 221 103.25C220.5 105.667 220.5 107.417 221 108.5C221.583 109.5 222.583 110.292 224 110.875C226.25 110.875 228.417 110.5 230.5 109.75C232.583 109 234.625 108.167 236.625 107.25C238.708 106.333 240.792 105.5 242.875 104.75C244.958 104 247.167 103.625 249.5 103.625C249.5 104.542 249.25 105.417 248.75 106.25C248.333 107 247.667 107.583 246.75 108C246.083 108.417 244.875 109.083 243.125 110C241.458 110.833 239.625 111.75 237.625 112.75C235.625 113.667 233.708 114.583 231.875 115.5C230.125 116.417 228.875 117.042 228.125 117.375C226.458 118.125 225.167 118.625 224.25 118.875C223.417 119.042 222.25 119.125 220.75 119.125ZM327 116.5C327 116.333 327.042 116.208 327.125 116.125C327.125 115.958 327.167 115.833 327.25 115.75C332.25 104.75 337.375 93.875 342.625 83.125C347.875 72.2917 353.542 61.5417 359.625 50.875C359.792 50.5417 360.042 49.9583 360.375 49.125C360.708 48.2083 361.042 47.25 361.375 46.25C361.708 45.1667 362 44.1667 362.25 43.25C362.5 42.25 362.667 41.5417 362.75 41.125C362.417 41.125 361.833 41.125 361 41.125C360.167 41.125 359.25 41.125 358.25 41.125C357.333 41.0417 356.417 41 355.5 41C354.667 41 354.083 41 353.75 41C351.833 41 349.708 41.125 347.375 41.375C345.042 41.5417 342.667 41.8333 340.25 42.25C337.917 42.6667 335.583 43.2083 333.25 43.875C331 44.4583 329 45.1667 327.25 46C325.833 46.6667 324.708 47.4583 323.875 48.375C323.125 49.2083 322.5 50.0417 322 50.875C321.5 51.7083 321.042 52.5417 320.625 53.375C320.208 54.125 319.667 54.7917 319 55.375C318.333 55.9583 317.417 56.4583 316.25 56.875C315.167 57.2083 313.667 57.375 311.75 57.375H310.875C312.125 56.125 313.292 54.625 314.375 52.875C315.542 51.0417 316.708 49.2083 317.875 47.375C319.042 45.4583 320.208 43.6667 321.375 42C322.625 40.3333 324 39 325.5 38C331.667 35.1667 338.292 33.3333 345.375 32.5C352.458 31.6667 359.333 31.3333 366 31.5C367.583 31.75 368.833 32.0833 369.75 32.5C370.667 32.8333 371.333 33.3333 371.75 34C372.167 34.6667 372.417 35.5 372.5 36.5C372.667 37.5 372.75 38.75 372.75 40.25C366.583 53.5 360.958 65.1667 355.875 75.25C350.792 85.3333 346.375 93.75 342.625 100.5C338.958 107.167 336.042 112.083 333.875 115.25C331.792 118.417 330.625 119.708 330.375 119.125C329.542 119.125 328.75 118.958 328 118.625C327.333 118.208 327 117.542 327 116.625V116.5ZM372.125 159.25C371.542 159.083 371 158.792 370.5 158.375C370 158.042 369.667 157.625 369.5 157.125C369.25 156.625 369.208 156.125 369.375 155.625C369.458 155.125 369.875 154.708 370.625 154.375C374.292 153.125 377.792 151.792 381.125 150.375C384.458 148.958 387.542 147.25 390.375 145.25C393.292 143.333 395.917 141 398.25 138.25C400.667 135.5 402.75 132.208 404.5 128.375L450 31.25H448.375C448.208 31.25 447.292 31.625 445.625 32.375C443.958 33.125 442 34 439.75 35C437.583 36 435.333 37.0417 433 38.125C430.667 39.2083 428.792 40.125 427.375 40.875C425.375 41.875 423.042 43.2917 420.375 45.125C417.792 46.875 415.083 48.9167 412.25 51.25C409.5 53.5833 406.792 56.125 404.125 58.875C401.458 61.5417 399.042 64.2917 396.875 67.125C394.792 69.875 393.083 72.625 391.75 75.375C390.5 78.125 389.875 80.6667 389.875 83C389.875 83.9167 390.042 84.7083 390.375 85.375C390.792 86.0417 391.25 86.7083 391.75 87.375C392.25 87.9583 392.667 88.625 393 89.375C393.417 90.0417 393.625 90.7917 393.625 91.625C391.875 91.625 390.375 91.3333 389.125 90.75C387.875 90.0833 386.833 89.25 386 88.25C385.25 87.1667 384.667 85.9583 384.25 84.625C383.917 83.2917 383.75 81.9167 383.75 80.5C383.75 78.3333 384.125 76.2917 384.875 74.375C385.625 72.375 386.583 70.5 387.75 68.75C389 66.9167 390.375 65.2083 391.875 63.625C393.375 61.9583 394.917 60.3333 396.5 58.75C397.833 57.4167 399.625 55.7083 401.875 53.625C404.125 51.4583 406.375 49.3333 408.625 47.25C410.875 45.1667 412.875 43.375 414.625 41.875C416.375 40.2917 417.375 39.4167 417.625 39.25L456.5 18.25C458.333 17.1667 459.917 15.625 461.25 13.625C462.667 11.625 464.042 9.66667 465.375 7.75C466.792 5.75 468.375 4.04167 470.125 2.625C471.875 1.125 474.083 0.375 476.75 0.375C477.5 0.375 478.167 0.541667 478.75 0.875C479.333 1.125 480 1.5 480.75 2C480.833 2.33333 480.875 3.04167 480.875 4.125C480.958 5.125 481 5.79167 481 6.125C481 7.20833 481 8.08333 481 8.75C481 9.33333 480.875 9.875 480.625 10.375C480.458 10.7917 480.125 11.2083 479.625 11.625C479.208 12.0417 478.5 12.625 477.5 13.375C476.75 13.9583 475.417 14.9583 473.5 16.375C471.667 17.7917 469.667 19.4583 467.5 21.375C465.333 23.2083 463.25 25.1667 461.25 27.25C459.333 29.25 458 31.125 457.25 32.875L428.875 89.5C428.792 89.9167 428.542 90.75 428.125 92C427.792 93.1667 427.542 93.9583 427.375 94.375C426.708 95.7083 425.833 97.5 424.75 99.75C423.75 101.917 422.625 104.292 421.375 106.875C420.208 109.375 418.958 112 417.625 114.75C416.375 117.417 415.167 119.917 414 122.25C412.917 124.583 411.958 126.583 411.125 128.25C410.292 130 409.708 131.125 409.375 131.625C407.958 134.375 405.917 137.458 403.25 140.875C400.667 144.292 397.708 147.458 394.375 150.375C391.042 153.292 387.458 155.625 383.625 157.375C379.792 159.125 375.958 159.75 372.125 159.25ZM580.375 132.25C576.625 132.25 573.625 131.375 571.375 129.625C569.125 127.875 567.375 125.542 566.125 122.625C564.958 119.792 564.167 116.542 563.75 112.875C563.333 109.208 563.042 105.458 562.875 101.625C562.792 97.7917 562.708 94.0833 562.625 90.5C562.625 86.8333 562.375 83.625 561.875 80.875C561.375 78.125 560.542 75.9583 559.375 74.375C558.292 72.7083 556.583 72 554.25 72.25C553.667 73.3333 552.792 74.9583 551.625 77.125C550.542 79.2917 549.25 81.75 547.75 84.5C546.25 87.25 544.667 90.1667 543 93.25C541.417 96.3333 539.875 99.25 538.375 102C536.875 104.75 535.5 107.25 534.25 109.5C533.083 111.667 532.208 113.292 531.625 114.375C530.958 115.542 530.5 116.458 530.25 117.125C530 117.708 529.708 118.208 529.375 118.625C529.125 118.958 528.75 119.167 528.25 119.25C527.833 119.333 527.167 119.375 526.25 119.375C524.583 119.375 523.417 119.125 522.75 118.625C522.083 118.042 521.75 116.917 521.75 115.25C523.167 109.917 525.042 104.625 527.375 99.375C529.792 94.0417 532.458 88.7917 535.375 83.625C538.292 78.375 541.375 73.2083 544.625 68.125C547.875 62.9583 551.083 57.875 554.25 52.875C556.25 49.875 558.583 46.4167 561.25 42.5C563.917 38.5 566.875 34.75 570.125 31.25C573.458 27.6667 577.042 24.6667 580.875 22.25C584.792 19.8333 588.958 18.625 593.375 18.625C594.958 18.5417 596.417 18.7917 597.75 19.375C599.167 19.875 600.333 20.6667 601.25 21.75C602.167 22.8333 602.833 24.0833 603.25 25.5C603.667 26.9167 603.708 28.4583 603.375 30.125C603.375 34.2083 602.5 38.1667 600.75 42C599.083 45.75 596.958 49.25 594.375 52.5C591.792 55.75 589 58.7083 586 61.375C583.083 64.0417 580.333 66.3333 577.75 68.25C575.167 70.1667 573 71.7083 571.25 72.875C569.583 73.9583 568.75 74.5417 568.75 74.625C568.75 75.625 568.75 77.5417 568.75 80.375C568.833 83.125 568.958 86.2917 569.125 89.875C569.375 93.4583 569.708 97.25 570.125 101.25C570.542 105.167 571.083 108.875 571.75 112.375C572.5 115.792 573.417 118.708 574.5 121.125C575.667 123.542 577.042 125.042 578.625 125.625C578.875 125.708 579.458 125.833 580.375 126C581.292 126.167 582.292 126.333 583.375 126.5C584.542 126.75 585.583 126.917 586.5 127C587.5 127.167 588.125 127.292 588.375 127.375C588.542 127.458 588.833 127.708 589.25 128.125C589.667 128.542 589.917 128.833 590 129C588.083 130.5 586.5 131.417 585.25 131.75C584 132.083 582.375 132.25 580.375 132.25ZM559 61.25C559 62.5 559.208 63.4583 559.625 64.125C560.042 64.7083 560.625 65.125 561.375 65.375C562.125 65.625 562.958 65.7917 563.875 65.875C564.875 65.875 565.917 65.875 567 65.875C570.333 65.875 573.667 64.7083 577 62.375C580.333 59.9583 583.333 57.0417 586 53.625C588.75 50.125 590.958 46.4167 592.625 42.5C594.292 38.5833 595.125 35.125 595.125 32.125C595.125 31.2917 595.125 30.4583 595.125 29.625C595.125 28.7917 595.042 28.0417 594.875 27.375C594.708 26.625 594.375 26.0417 593.875 25.625C593.375 25.2083 592.583 25 591.5 25C589.583 25 587.458 25.6667 585.125 27C582.792 28.25 580.417 29.9167 578 32C575.583 34.0833 573.208 36.4583 570.875 39.125C568.625 41.7083 566.625 44.375 564.875 47.125C563.125 49.7917 561.708 52.375 560.625 54.875C559.542 57.375 559 59.5 559 61.25ZM595.75 110.875C596.5 106.125 597.917 101.75 600 97.75C602.083 93.75 604.458 90.2917 607.125 87.375C609.875 84.375 612.833 81.9167 616 80C619.167 78.0833 622.25 76.875 625.25 76.375C628.25 75.7917 631 75.9167 633.5 76.75C636.083 77.5833 638.167 79.25 639.75 81.75C639.75 83.6667 639.292 85.5 638.375 87.25C637.542 89 636.583 90.75 635.5 92.5C634.5 94.25 633.542 96.0417 632.625 97.875C631.792 99.7083 631.375 101.667 631.375 103.75C631.375 105.917 631.833 107.667 632.75 109C633.75 110.25 635.458 110.875 637.875 110.875C639.875 110.875 641.792 110.583 643.625 110C645.542 109.417 647.458 109.125 649.375 109.125C649.708 109.125 650.25 109.167 651 109.25C651.833 109.25 652.375 109.25 652.625 109.25C651.625 110.667 650.333 111.875 648.75 112.875C647.167 113.875 645.5 114.75 643.75 115.5C642 116.167 640.167 116.667 638.25 117C636.417 117.333 634.708 117.5 633.125 117.5C631.625 117.5 630.292 117.167 629.125 116.5C627.958 115.833 626.958 114.958 626.125 113.875C625.292 112.792 624.625 111.583 624.125 110.25C623.708 108.833 623.5 107.458 623.5 106.125C622.25 107.542 620.875 109.042 619.375 110.625C617.958 112.125 616.417 113.5 614.75 114.75C613.167 116 611.417 117.042 609.5 117.875C607.667 118.708 605.75 119.125 603.75 119.125C601.583 119.125 599.708 118.333 598.125 116.75C596.542 115.083 595.75 113.125 595.75 110.875ZM604 107C604 107.667 604 108.417 604 109.25C604.083 110.083 604.625 110.625 605.625 110.875C607.708 110.375 610.083 109.292 612.75 107.625C615.417 105.875 617.917 103.875 620.25 101.625C622.583 99.2917 624.542 96.8333 626.125 94.25C627.708 91.5833 628.5 89.0417 628.5 86.625C628.5 86.4583 628.458 86.2083 628.375 85.875C628.375 85.4583 628.375 85.1667 628.375 85C625.542 85 622.667 85.5833 619.75 86.75C616.833 87.9167 614.208 89.5417 611.875 91.625C609.542 93.625 607.625 95.9583 606.125 98.625C604.708 101.292 604 104.083 604 107ZM650.625 113.375C650.625 112.625 650.625 112.042 650.625 111.625C650.625 111.208 650.667 110.833 650.75 110.5C650.917 110.083 651.125 109.667 651.375 109.25C651.625 108.833 651.958 108.292 652.375 107.625C653.042 106.458 654.292 104.417 656.125 101.5C657.958 98.5833 659.917 95.5 662 92.25C664.083 89 666.042 85.9167 667.875 83C669.792 80.0833 671.125 78.0417 671.875 76.875C671.958 76.7917 672.167 76.75 672.5 76.75C672.917 76.75 673.208 76.75 673.375 76.75C673.542 76.75 673.833 76.75 674.25 76.75C674.667 76.75 674.917 76.7917 675 76.875C675.083 76.9583 675.25 77.1667 675.5 77.5C675.833 77.8333 676.167 78.2083 676.5 78.625C676.917 78.9583 677.25 79.2917 677.5 79.625C677.833 79.9583 678.083 80.125 678.25 80.125C679 80.125 679.792 79.875 680.625 79.375C681.458 78.875 682.292 78.3333 683.125 77.75C684.042 77.0833 684.958 76.5 685.875 76C686.792 75.5 687.75 75.25 688.75 75.25C689.833 75.25 690.833 75.5 691.75 76C692.667 76.5 693.458 77.125 694.125 77.875C694.792 78.625 695.292 79.4583 695.625 80.375C696.042 81.2917 696.25 82.2083 696.25 83.125C696.25 85.0417 695.958 86.875 695.375 88.625C694.875 90.375 694.292 92.125 693.625 93.875C692.958 95.5417 692.333 97.25 691.75 99C691.25 100.667 691 102.417 691 104.25C691 106.083 691.208 107.417 691.625 108.25C692.042 109 693.208 109.375 695.125 109.375C697.375 109.375 699.5 109.042 701.5 108.375C703.583 107.708 705.708 107.375 707.875 107.375C707.875 109.375 707.25 111.042 706 112.375C704.833 113.708 703.333 114.792 701.5 115.625C699.75 116.375 697.833 116.917 695.75 117.25C693.75 117.5 691.917 117.625 690.25 117.625C687.083 117.625 684.75 116.75 683.25 115C681.833 113.167 681.125 110.75 681.125 107.75C681.125 105.75 681.458 103.875 682.125 102.125C682.875 100.375 683.667 98.6667 684.5 97C685.417 95.3333 686.25 93.6667 687 92C687.75 90.3333 688.125 88.5417 688.125 86.625C688.125 86.125 688.042 85.4583 687.875 84.625C687.708 83.7917 687.167 83.375 686.25 83.375C683.5 83.375 681 84.25 678.75 86C676.583 87.75 674.583 89.9583 672.75 92.625C671 95.2917 669.375 98.1667 667.875 101.25C666.458 104.333 665.083 107.208 663.75 109.875C662.5 112.542 661.292 114.75 660.125 116.5C658.958 118.25 657.75 119.125 656.5 119.125C654.75 119.125 653.333 118.583 652.25 117.5C651.167 116.417 650.625 115.042 650.625 113.375ZM734.75 73.75C732.833 74 730.625 75.2083 728.125 77.375C725.625 79.4583 723.208 82.0417 720.875 85.125C718.625 88.125 716.708 91.4167 715.125 95C713.542 98.5 712.75 101.75 712.75 104.75C712.75 107.167 713.375 108.875 714.625 109.875C715.875 110.792 717.667 111.25 720 111.25C722.5 111.25 724.917 110.958 727.25 110.375C729.667 109.708 732.042 109.042 734.375 108.375C736.792 107.625 739.167 106.958 741.5 106.375C743.917 105.708 746.375 105.375 748.875 105.375C748.875 106.542 748.708 107.542 748.375 108.375C748.042 109.125 747.542 109.958 746.875 110.875C742.542 112.958 738.083 114.875 733.5 116.625C728.917 118.292 724.125 119.125 719.125 119.125C717.625 119.125 716.042 118.875 714.375 118.375C712.708 117.792 711.167 117 709.75 116C708.333 115 707.125 113.792 706.125 112.375C705.208 110.958 704.75 109.375 704.75 107.625C704.75 103.875 705.292 100.25 706.375 96.75C707.458 93.1667 708.958 89.7917 710.875 86.625C712.792 83.4583 715.083 80.5417 717.75 77.875C720.5 75.2083 723.458 72.875 726.625 70.875V70.75C727.875 70 729.292 69.2917 730.875 68.625C732.542 67.875 734.083 67.4583 735.5 67.375C736.917 67.2083 738.083 67.5417 739 68.375C740 69.125 740.5 70.5833 740.5 72.75C740.5 73.75 740.417 75.0833 740.25 76.75C740.083 78.3333 739.625 79.4583 738.875 80.125C738.208 80.5417 737.333 80.9167 736.25 81.25C735.75 81.4167 735.25 81.5417 734.75 81.625V73.75ZM790.875 119.125C788.792 119.458 786.875 119.125 785.125 118.125C783.458 117.042 782.125 115.667 781.125 114C780.125 112.25 779.542 110.375 779.375 108.375C779.208 106.292 779.625 104.417 780.625 102.75C784.292 98 786.792 94.25 788.125 91.5C789.458 88.6667 789.917 86.7083 789.5 85.625C789.167 84.4583 788.125 84 786.375 84.25C784.708 84.4167 782.667 85.1667 780.25 86.5C777.833 87.75 775.208 89.4167 772.375 91.5C769.625 93.5833 767.042 95.875 764.625 98.375C762.208 100.875 760.083 103.5 758.25 106.25C756.5 108.917 755.375 111.542 754.875 114.125C754.042 114.625 753.333 115.042 752.75 115.375C752.167 115.625 751.5 115.75 750.75 115.75C749.5 115.75 748.75 115.333 748.5 114.5C748.25 113.667 748.125 112.792 748.125 111.875C748.125 109.792 748.75 107.667 750 105.5C751.333 103.25 752.833 101.167 754.5 99.25C756.25 97.25 757.917 95.4583 759.5 93.875C761.083 92.2083 762.208 90.875 762.875 89.875C764.958 86.4583 767.042 82.7917 769.125 78.875C771.208 74.875 773.292 70.8333 775.375 66.75C777.458 62.5833 779.583 58.5 781.75 54.5C784 50.4167 786.333 46.5417 788.75 42.875C789.167 42.2083 789.5 41.75 789.75 41.5C790.083 41.25 790.542 41.125 791.125 41.125C791.792 41.125 792.292 41.25 792.625 41.5C792.958 41.75 793.292 42.2083 793.625 42.875C793.625 43.2083 793.542 43.75 793.375 44.5C793.292 45.25 793.167 46.0833 793 47C792.917 47.8333 792.75 48.625 792.5 49.375C792.333 50.125 792.208 50.625 792.125 50.875C791.625 51.875 790.792 53.625 789.625 56.125C788.458 58.625 787.167 61.2917 785.75 64.125C784.417 66.9583 783.125 69.75 781.875 72.5C780.625 75.1667 779.708 77.1667 779.125 78.5C780.375 77.6667 781.5 77.0417 782.5 76.625C783.5 76.125 784.458 75.7917 785.375 75.625C786.375 75.375 787.375 75.25 788.375 75.25C789.458 75.1667 790.625 75.125 791.875 75.125C794.875 75.875 796.833 77 797.75 78.5C798.75 80 799.042 81.75 798.625 83.75C798.292 85.6667 797.5 87.7917 796.25 90.125C795 92.4583 793.667 94.8333 792.25 97.25C790.917 99.5833 789.708 101.875 788.625 104.125C787.542 106.292 787.042 108.292 787.125 110.125C787.125 110.875 787.292 111.417 787.625 111.75C787.958 112.083 788.375 112.333 788.875 112.5C789.375 112.667 789.917 112.75 790.5 112.75C791.083 112.75 791.625 112.75 792.125 112.75C793.875 112.75 795.542 112.5 797.125 112C798.792 111.417 800.417 110.792 802 110.125C803.583 109.458 805.167 108.875 806.75 108.375C808.417 107.792 810.125 107.5 811.875 107.5C811.875 109.083 811.083 110.583 809.5 112C807.917 113.417 806 114.667 803.75 115.75C801.583 116.75 799.292 117.583 796.875 118.25C794.458 118.833 792.458 119.125 790.875 119.125Z" fill="black"/>
</svg>
