<svg width="435" height="253" viewBox="0 0 435 253" fill="none" xmlns="http://www.w3.org/2000/svg">
<path d="M198 211.851H237V242.851H198V211.851Z" fill="black"/>
<path d="M0 9.85138H107V39.8514H48L52.5 47.3514L60.5 53.3514L69 58.3514L76 60.3514H107L115 89.8514H76L60.5 85.8514L43.5 78.3514L32 67.8514L23 58.3514L17.5 48.3514L14.0505 39.8514L0 9.85138Z" fill="black"/>
<path d="M106.5 39.8514L106.5 9.85138L120.5 11.8514L131 17.3514L140.5 25.3514L145.5 31.3514L148 39.8514L152.5 54.8514L158.762 82.8514L185.5 197.351L191 207.351L198 211.851L198 242.351L189 240.351L182 237.851L173 231.351L163.5 221.851L158.762 210.409L120.5 49.8514L115.5 42.3514L106.5 39.8514Z" fill="black"/>
<path d="M434.599 9.85138H327.599V39.8514H386.599L382.099 47.3514L374.099 53.3514L365.599 58.3514L358.599 60.3514H327.599L319.599 89.8514H358.599L374.099 85.8514L391.099 78.3514L402.599 67.8514L411.599 58.3514L417.099 48.3514L420.548 39.8514L434.599 9.85138Z" fill="black"/>
<path d="M328.099 39.8514L328.099 9.85138L314.099 11.8514L303.599 17.3514L294.099 25.3514L289.099 31.3514L286.599 39.8514L282.099 54.8514L275.837 82.8514L249.099 197.351L243.599 207.351L236.599 211.851L236.599 242.351L245.599 240.351L252.599 237.851L261.599 231.351L271.099 221.851L275.837 210.409L314.099 49.8514L319.099 42.3514L328.099 39.8514Z" fill="black"/>
</svg>
